<?xml version="1.0" encoding="UTF-8" standalone="no"?>
<svg xmlns="http://www.w3.org/2000/svg" width="600" height="600">
  <rect width="64" height="270" x="-360" y="165" transform="matrix(0,-1,1,0,0,0)" style="fill:#000000" />
  <path d="M 300,0 C 135,0 0,135 0,300 0,465 135,600 300,600 465,600 600,465 600,300 600,135 465,0 300,0 z m 0,64 C 431,64 536,169 536,300 536,431 431,536 300,536 169,536 64,431 64,300 64,169 169,64 300,64 z" style="fill:#000000" />
  <rect width="64" height="500" x="-328.06311" y="-404.19559" transform="matrix(-0.90630779,-0.42261826,0.42261826,-0.90630779,0,0)" style="fill:#000000" />
  <rect width="64" height="500" x="-279.65326" y="-657.7666" transform="matrix(-0.90630779,0.42261826,-0.42261826,-0.90630779,0,0)" style="fill:#000000" />
</svg>
