<?xml version="1.0" encoding="UTF-8" standalone="no"?>
<svg xmlns="http://www.w3.org/2000/svg" xmlns:xlink="http://www.w3.org/1999/xlink"
   width="606" height="606" viewBox="-303 -303 606 606">
  <polygon id="bG" points="-50 50 -120 60 -240 130 -280 70 -280 -70 -240 -130 -120 -60 -50 -50 " style="fill:#ffffff" />
  <use transform="rotate(90)" xlink:href="#bG" />
  <use transform="rotate(180)" xlink:href="#bG" />
  <use transform="rotate(270)" xlink:href="#bG" />
  <g style="fill:#000000;stroke:none">
    <g id="G1">
      <path d="M 163.82432,251.28275 C 94.255078,189.89785 50.375,100.0733 50.375,0 C 50.375,-100.0733 94.255083,-189.89786 163.82433,-251.28276 L 134.16706,-268.3145 C 71.877122,-196.40542 34.1875,-102.60415 34.1875,0 C 34.1875,102.60415 71.877122,196.40542 134.16706,268.3145 L 163.82432,251.28275 z" />
      <path d="M 0,-300 C -64.02701,-300 -123.34563,-279.9247 -172.0625,-245.75 C -181.1106,-239.41445 -183.33555,-226.95435 -177,-217.90625 C -170.66445,-208.85815 -158.1731,-206.6332 -149.125,-212.96875 C -144.78197,-216.00978 -142.0319,-220.47014 -141.03125,-225.28125 C -133.41824,-221.81558 -125.60323,-216.37497 -117.375,-220.75 C -103.10841,-228.33569 -113.77071,-250.58266 -98.4375,-256.46875 C -83.104287,-262.35484 -76.14671,-238.65354 -60.46875,-242.5625 C -44.79079,-246.47146 -49.7704,-270.65488 -33.46875,-272.65625 C -17.16711,-274.65762 -16.157919,-250 0,-250 C 16.157919,-250 17.167104,-274.65762 33.46875,-272.65625 C 49.770396,-270.65488 44.790792,-246.47146 60.46875,-242.5625 C 76.146708,-238.65354 83.104292,-262.35484 98.4375,-256.46875 C 113.77071,-250.58266 103.10841,-228.33569 117.375,-220.75 C 125.60323,-216.37497 133.41824,-221.81558 141.03125,-225.28125 C 142.0319,-220.47014 144.78197,-216.00978 149.125,-212.96875 C 158.1731,-206.6332 170.66445,-208.85815 177,-217.90625 C 183.33555,-226.95435 181.1106,-239.41445 172.0625,-245.75 C 123.34563,-279.9247 64.02701,-300 0,-300 z" />
    </g>
    <polygon points="-24,-240 -4,-4 -240,-24 -240,24 -4,4 -24,240 24,240 4,4 240,24 240,-24 4,-4 24,-240 -24,-240 " />
  </g>
  <use transform="rotate(90)" xlink:href="#G1" />
  <use transform="rotate(180)" xlink:href="#G1" />
  <use transform="rotate(270)" xlink:href="#G1" />
  <polygon points="-62,-62 62,-62 62,62 -62,62 -62,-62 " style="fill:#ffffff;stroke:#000000;stroke-width:18" />
</svg>
