<svg xmlns="http://www.w3.org/2000/svg" xmlns:xlink="http://www.w3.org/1999/xlink" version="1.1" x="0px" y="0px" width="100px" height="100px" viewBox="0 0 100 100" enable-background="new 0 0 100 100" xml:space="preserve">
<g id="Captions">
</g>
<g id="Your_Icon">
	<path fill-rule="evenodd" clip-rule="evenodd" d="M38.421,96.791c0,0-11.167-4.3-15.529-17.614   c-4.17-12.726,1.593-26.808,10.116-32.308c0,0-6.384,8.824-1.614,14.678c2.437,2.99,7.456,2.728,10.047,0.28   c3.451-3.26,3.973-6.978,3.643-11.696c-0.634-9.062-8.895-13.393-3.817-24.875c0,0,0.856,5.681,6.422,5.221   c2.911-0.239,7.081-4.278,2.174-11.511c-4.908-7.234-4.131-13.408,0.784-18.707c0,0-3.669,8.369,3.941,14.14   c7.175,5.44,8.517,13.301,5.641,19.436c-2.539,5.415-6.561,11.969-3.203,17.258c3.359,5.291,12.486,3.17,12.218-4.709   c-0.183-5.378-2.974-7.614-2.974-7.614s6.229,2.927,8.365,10.11c1.436,4.83-0.508,12.171-3.479,16.973   c-2.228,3.603-4.866,5.755-5.128,9.011c-0.323,4.026,2.768,6.723,6.278,6.327c5.729-0.646,5.369-8.053,5.369-8.053   s4.025,9.012-5.752,18.214C62.021,100.673,47.839,101.824,38.421,96.791z"/>
</g>
</svg>