<svg width="600" height="600" xmlns="http://www.w3.org/2000/svg">
 <!-- Created with SVG-edit - http://svg-edit.googlecode.com/ -->

 <g display="inline">
  <title>Layer 1</title>
  <circle id="svg_10" r="294.066162" cy="299.999988" cx="300.000003" stroke-width="5" fill="#000000"/>
 </g>
 <g>
  <title>Layer 2</title>
  <g id="svg_9">
   <g id="svg_5">
    <path fill="#ffffff" id="svg_6" d="m542.440002,440.467804c-0.14386,-16.871429 -2.00531,-33.320984 -5.435242,-49.199799c-2.21875,-10.433594 -5.221741,-20.653717 -8.721069,-30.51651c-13.943054,-38.542938 -37.46579,-72.49939 -67.634979,-99.104584c-8.73111,-7.644073 -17.953583,-14.722229 -27.667511,-21.090698c-13.729431,-8.939545 -28.46167,-16.514099 -43.973145,-22.515106c-9.798279,-3.861786 -19.948883,-7.008789 -30.31308,-9.579987c-18.162048,-4.36792 -37.167938,-6.720673 -56.694977,-6.720673c-19.522186,0 -38.542938,2.357635 -56.699982,6.720673c-1.856384,9.862823 -2.789474,20.01358 -2.789474,30.382629c0,4.93396 0.213272,9.862793 0.645157,14.732239c18.588867,-5.792572 38.394043,-8.939697 58.839325,-8.939697c20.450256,0 40.245392,3.147125 58.844299,8.939697c9.500458,2.998047 18.717957,6.641266 27.523407,11.009308c14.08197,6.790375 27.235657,15.29303 39.173401,25.170868c8.582092,7.07312 16.519104,14.871124 23.676666,23.229889c18.583862,21.304016 32.596313,46.61377 40.602753,74.435181c2.720062,9.425903 4.794922,19.154663 6.010986,29.086975c-8.86499,4.298676 -18.013123,8.011444 -27.52359,11.009521c-18.588776,5.728058 -38.329376,8.869995 -58.774628,8.869995c-11.361847,0 -22.589813,-1.007629 -33.460052,-2.928528c-13.089325,12.508545 -27.454102,23.731323 -42.901031,33.390533c24.029144,8.070923 49.691223,12.439026 76.361084,12.439026c19.521973,0 38.468414,-2.357788 56.625427,-6.720825c10.369049,-2.506714 20.519806,-5.718201 30.31308,-9.5849c15.521454,-6.010956 30.248566,-13.575531 43.973175,-22.515228z"/>
    <path fill="#ffffff" id="svg_7" d="m112.179451,387.416199c8.001442,-27.821228 22.018867,-53.130951 40.60775,-74.43512c-4.715378,-16.519104 -7.93689,-33.673492 -9.435928,-51.339172c-30.174026,26.605194 -53.696899,60.56665 -67.63987,99.104584c-3.504318,9.862823 -6.507317,20.087921 -8.721107,30.516541c-3.429935,15.883789 -5.286316,32.328339 -5.430298,49.204773c13.729538,8.939697 28.451706,16.504272 43.96817,22.515228c9.798271,3.861877 19.949028,7.078186 30.308075,9.5849c18.162186,4.363037 37.113449,6.720825 56.6306,6.720825c26.664719,0 52.33194,-4.368103 76.356064,-12.439026c11.436188,-3.792145 22.594604,-8.512695 33.177094,-13.942902c15.292999,-7.867371 29.593414,-17.308289 42.831482,-28.183716c8.433258,-6.924286 16.439697,-14.434326 23.880188,-22.43573c21.800446,-23.463226 38.964813,-51.264801 50.043701,-82.014709c-10.870422,-10.503113 -23.091034,-19.442657 -36.463135,-26.664734c-10.155609,35.316437 -29.960602,66.55777 -56.347504,90.805328c-7.505005,6.854736 -15.511444,13.153687 -23.944733,18.727844c-13.228241,8.860138 -27.597961,16.151733 -42.831482,21.582001c-10.651993,3.946136 -21.805405,6.874725 -33.241608,8.736084c-10.865585,1.920898 -22.088394,2.928528 -33.455215,2.928528c-20.450287,0 -40.18573,-3.141937 -58.774796,-8.869995c-9.510307,-2.998077 -18.658424,-6.710846 -27.528435,-11.009521c1.216072,-9.932312 3.290886,-19.661072 6.010986,-29.09201z"/>
    <path fill="#ffffff" id="svg_8" d="m382.724121,185.50415c16.797028,5.286346 32.884247,12.14621 48.043365,20.519821c-6.869873,-50.123062 -29.171539,-95.302307 -62.055817,-130.69326c-7.440491,-8.006424 -15.441895,-15.516457 -23.880188,-22.450706c-13.238068,-10.870445 -27.538483,-20.306305 -42.831482,-28.168747c-15.30304,7.862442 -29.603271,17.298302 -42.831482,28.168747c-8.433273,6.93425 -16.439713,14.444283 -23.880203,22.450706c-32.889297,35.390953 -55.190948,80.570198 -62.055679,130.69326c-1.429657,10.726547 -2.213867,21.656509 -2.213867,32.814896l0,1.712494c0.139069,16.871429 1.995438,33.320984 5.430222,49.199768c2.218887,10.438599 5.221786,20.653717 8.795639,30.516693c11.078873,30.749817 28.238266,58.556335 50.043686,82.014526c15.228485,-4.015533 29.603256,-10.016693 42.75209,-17.879059c-26.376907,-24.247559 -46.186874,-55.488892 -56.337631,-90.805328c-2.789505,-9.366425 -4.789932,-19.095154 -6.080521,-29.027466c-1.141556,-8.433319 -1.717484,-17.020508 -1.717484,-25.741608c0,-7.008636 0.357483,-14.012421 1.077164,-20.802765c1.211227,-11.158249 3.286026,-22.023712 6.288956,-32.531799c10.011703,-35.961731 30.030273,-67.714325 56.769516,-92.304382c7.51001,-6.864716 15.516418,-13.148682 23.95462,-18.802338c8.433258,5.653656 16.439697,11.937622 23.944733,18.802338c26.749207,24.604889 46.767639,56.352478 56.784363,92.314209z"/>
   </g>
  </g>
 </g>
</svg>