<svg width="600" height="600" xmlns="http://www.w3.org/2000/svg">
 <!-- Created with SVG-edit - http://svg-edit.googlecode.com/ -->

 <g display="inline">
  <title>Layer 1</title>
  <circle id="svg_10" r="294.066162" cy="299.999988" cx="300.000003" stroke-width="5" fill="#000000"/>
 </g>
 <g>
  <title>Layer 2</title>
  <metadata id="svg_20">image/svg+xml</metadata>

  <g id="svg_22">
   <path fill="#ffffff" id="svg_19" d="m439.179504,21.47995c3.125122,7.640076 6.077454,15.453835 10.24469,22.399895c0.868408,-6.077621 1.562439,-12.155235 2.08313,-18.232666c1.736877,-0.520882 3.473022,-1.041763 5.2099,-1.562645c0.520569,3.125473 1.388977,9.202721 1.909668,12.155052c0.694946,-3.820038 1.388977,-7.814316 2.257385,-11.807854c0.694946,0 2.084106,0.173683 2.778137,0.173683c0.521423,4.51461 1.215637,9.20327 1.736877,13.717323c0.520691,-4.514053 1.214905,-9.202713 1.909607,-13.717323c0.868469,-0.173683 2.604614,-0.347374 3.473022,-0.347374c-0.346985,3.299522 -0.694885,6.598129 -1.041931,9.897652c1.736145,-2.431084 3.473022,-5.035667 5.38269,-7.466568c3.125854,12.155045 -1.562622,25.524994 5.035461,36.8116c2.083923,-3.29879 4.341492,-6.424622 6.946106,-9.376221c-0.173523,6.250938 -1.9104,12.328545 -1.9104,18.579674c1.736877,-3.126022 3.472839,-6.424622 5.208984,-9.550644c2.778809,5.556183 5.2099,11.286789 8.335022,16.842972c4.341614,-11.807297 8.335022,-23.614609 11.113281,-35.943161c0.520508,-5.730606 7.119568,-6.598129 11.286621,-8.855705c0.173462,3.47303 0.173462,6.94532 0.347168,10.418167c3.820068,-1.562462 7.639893,-3.299339 11.460083,-4.514977c-1.736145,1.563377 -3.473022,3.299522 -5.382629,4.862167c5.730408,1.388954 8.68219,6.772369 11.460266,11.286606c2.083923,-0.867706 4.341309,-1.562645 6.424622,-2.25666c2.257385,16.495781 -18.92688,22.572487 -20.315979,38.027046c6.424622,-1.041946 12.849243,-2.083893 19.100342,-3.993546c1.215637,4.167053 1.215637,10.938873 6.772583,11.460114c15.106628,1.562653 30.907471,0.520706 44.798645,7.466568c1.38916,14.411896 3.299561,29.171539 2.084106,43.756927c-3.820068,9.376953 -15.280334,13.196991 -18.232666,23.268143c-2.945007,23.069901 -26.325012,68.849991 -34.901245,77.964676c-86.740723,57.573639 -203.986237,35.657043 -222.607361,-74.665146c-3.994293,-9.897659 -16.670044,-12.155045 -25.872742,-8.682205c-5.730438,1.736145 -7.640259,8.160767 -10.766113,12.675751c-15.525909,130.007813 -203.959106,136.418121 -234.414505,58.690063c-14.933136,-18.405426 -12.328545,-44.798889 -26.567024,-63.552048c-4.167412,-5.209183 -10.939415,-7.813766 -14.064972,-13.89119c-1.389137,-14.412628 -1.562737,-29.171539 -0.34729,-43.75766c5.035583,-5.382675 12.849434,-5.209183 19.447838,-6.771637c12.154861,-1.736877 23.962357,-4.688477 35.943527,-6.94606c-10.765732,-5.729675 -22.05233,-10.59166 -34.2071,-13.196259l9.550179,-1.38913c-1.041939,-1.215454 -2.083702,-2.605316 -3.299248,-3.820038c4.862076,1.041214 9.724052,2.256851 14.412163,3.47229c-5.556366,-3.820038 -9.897461,-9.202713 -11.633797,-15.800842c3.993721,2.778091 7.640083,5.903198 11.286613,9.029205c-0.520889,-1.736145 -1.041763,-3.473022 -1.562836,-5.209167c5.035675,3.820038 10.418533,7.11882 15.627716,10.591675c7.640259,4.862167 14.585571,12.675735 24.483231,11.808029c-2.430908,-4.688477 -4.861984,-9.203445 -7.466568,-13.717682c2.778091,0.694199 5.556915,1.215622 8.335007,1.909653c-1.041946,-2.951599 -2.083893,-5.903931 -3.125839,-8.85553c5.556915,5.209183 10.766098,10.766098 16.322281,15.975082c1.215454,-8.682022 1.910385,-17.364212 1.563187,-26.219742c0.867706,0 2.256851,0 2.951782,0c0.868439,9.376221 1.388962,18.753174 2.083893,28.129395c4.167053,-9.376221 7.640076,-19.447372 15.800842,-26.045502c-0.868439,9.202713 -3.99353,18.058426 -6.077606,27.087448c1.38913,0.173691 3.993713,0.694931 5.209167,0.868439c-0.694199,-1.215454 -1.38913,-2.430893 -2.256653,-3.472839c8.507782,-3.993729 15.97435,-9.549911 24.656357,-13.196442c12.849258,-6.077438 17.017212,-20.83725 26.914871,-30.21347c0.173492,2.431084 0.347015,4.861427 0.520508,7.11882c4.340729,-3.64653 8.335205,-7.640068 12.675751,-11.286606c0.520691,2.257401 1.041931,4.688477 1.38913,7.11956c3.125854,-1.389137 6.077454,-2.951775 9.029205,-4.514969c-4.514221,7.466568 -9.549896,14.585945 -13.891357,22.226204c8.334991,-7.987274 16.670197,-15.975266 26.046417,-23.09391c-1.736145,4.340546 -3.99353,8.507782 -6.251129,12.67556c3.473053,-2.430901 7.119568,-5.035484 10.766113,-7.466568c-1.9104,4.86216 -3.820038,9.549911 -5.904114,14.238388c4.862152,-5.556183 9.550629,-11.113106 14.759613,-16.148773c-0.347717,4.688477 -0.52124,9.550644 -0.52124,14.412628c3.473022,-1.910385 6.945892,-3.820038 10.592407,-5.556923c-2.257385,4.167778 -4.514771,8.335014 -6.945862,12.502052c0.868439,0.347931 1.736877,0.694946 2.778076,1.04213c7.119568,-4.68866 15.45459,-7.119553 23.962372,-7.987259c-4.687744,5.729691 -10.244659,10.59166 -15.800842,15.453827c8.682007,-3.64653 16.669281,-8.682205 25.871979,-10.41835c-12.32782,14.759827 -27.261139,26.56694 -42.715698,37.680222c6.251129,1.041946 13.023499,0.520523 18.927582,2.951599c29.692047,17.190536 66.156647,18.753174 99.148193,11.286606c5.730438,-0.868439 10.071167,-4.861984 12.850006,-9.724136c6.251099,-2.256668 12.154297,-5.209 18.578918,-7.118652c-12.154297,-15.454575 -32.123108,-19.274597 -47.229767,-30.734894c8.855713,1.215439 17.53775,2.952332 26.566956,2.952332c-9.029205,-5.209732 -18.92688,-8.85553 -27.261871,-15.106644c-3.125122,-2.083893 -2.257599,-6.251129 -2.951599,-9.376961c5.035492,0.694756 9.897644,1.736145 14.933136,2.778091c-3.473022,-2.604584 -7.119568,-5.209175 -10.592407,-7.640259c3.646332,-1.909653 7.466553,-3.820038 11.113098,-5.903191c-0.173676,1.041206 -0.173676,2.778091 -0.347198,3.645798c1.38913,-0.173508 3.993744,-0.520699 5.38269,-0.694199c-2.951599,-3.125839 -6.077423,-6.077438 -9.202728,-9.029213c1.215637,-0.868446 2.431091,-1.563194 3.473022,-2.430901c6.598145,1.736145 13.543457,2.604584 19.968079,4.861984c-0.347198,-1.736885 -0.520691,-3.47303 -0.867706,-5.035492c15.453857,6.598129 31.081909,12.849251 45.84082,20.836334c-4.514252,-10.071159 -14.411896,-17.884735 -15.106842,-29.518532c9.724152,5.382675 16.322296,14.411888 23.268341,22.920403c-2.778259,-8.682022 -5.904114,-17.19072 -8.68219,-25.872551c8.160767,2.25721 17.53772,5.035301 19.795288,14.585945c5.556183,2.430901 7.466583,8.508514 10.071136,13.370499c0.347046,-3.820038 0.694031,-7.640808 1.04126,-11.460846c2.605286,4.861977 4.688477,9.723961 6.772339,14.759636c-2.257385,-11.980812 -3.99353,-24.483055 2.257568,-35.596153m15.800842,111.12973c-25.35144,2.431091 -51.049957,4.167969 -76.05426,10.244659c-10.244659,3.473038 -22.226196,7.640259 -26.914673,18.232666c-6.424622,14.411896 -2.604584,30.907669 3.125824,44.799591c4.862,18.231934 13.022766,37.505798 30.386993,47.22995c25.004272,15.801575 56.086182,14.412445 84.215759,13.370514c26.566956,-1.041962 54.522827,-9.029205 72.06073,-30.21347c13.891052,-24.830811 15.975098,-54.870758 9.723999,-82.306137c-2.431091,-8.334274 -11.113098,-12.50206 -18.058228,-16.669296c-25.004517,-9.202713 -52.43988,-6.077423 -78.486145,-4.688477m-303.697144,6.598862c-25.004288,1.562653 -50.530014,0 -74.839386,6.77182c-9.550262,2.604584 -17.364029,9.549728 -21.531448,18.231934c-7.11937,19.274597 1.215454,38.548294 5.730057,56.954636c4.861984,21.01004 20.316193,40.111145 41.847641,44.798889c28.303085,6.945862 58.169357,6.772339 87.167374,3.646332c21.010773,-1.562469 42.021515,-12.328552 53.828644,-30.213287c12.328735,-21.184265 19.273865,-47.40419 13.022736,-71.540222c-3.472107,-13.543274 -17.53772,-19.273697 -29.692017,-22.746719c-24.657288,-5.556183 -50.355804,-7.29306 -75.5336,-5.903381l0,0z"/>
   <path fill="#ffffff" id="svg_18" d="m240.385742,373.520355c-10.136444,7.765533 -18.606079,17.497925 -29.041504,24.874268c-9.184723,7.190887 -19.813263,12.082214 -28.998016,19.273865c4.164307,-1.024719 8.317047,-2.055267 12.458771,-2.908691c-8.473297,7.110413 -19.832153,12.248962 -23.918884,23.268158c4.829712,-0.761688 9.358978,-1.913513 14.108368,-3.385895c-6.501312,5.444305 -11.94635,12.252045 -12.936371,21.05368c4.10614,-1.908203 8.199646,-3.996704 12.328552,-6.077637c-2.934357,3.640686 -6.008484,7.082703 -8.942841,10.722412c1.549805,0.205078 3.141052,0.249451 4.862183,0.477783c5.192474,-6.143616 13.323883,-5.560547 20.576416,-4.775574c-0.32901,3.810303 -0.081055,7.517029 -0.043457,11.200195c6.227661,-3.378906 11.246063,-8.344727 16.278625,-13.283325c-3.701355,5.46521 -7.218781,10.791565 -11.069641,16.061462c2.835327,1.075867 5.644226,2.343201 8.63855,2.213928c4.632904,-3.240112 7.442566,-8.481384 11.156769,-12.719238c-3.675873,7.921082 -6.680115,16.097595 -8.508514,24.613647c2.374603,-0.736206 4.571289,-1.520447 6.945862,-2.257385c2.227509,1.69635 4.434631,3.424988 6.685242,4.949097c4.070221,-2.964417 8.845276,-4.644104 13.847748,-5.383423l-5.469818,5.600586c0.999969,1.708252 1.84436,3.415039 2.821747,5.295349l8.464874,-8.334106c-1.144104,3.351257 -2.458771,6.67627 -3.602875,10.027527c5.986633,-2.885559 11.536774,-6.559814 16.799316,-10.592407c-0.07373,7.171997 -1.226837,14.744629 2.083893,21.488525c2.405396,-4.936401 5.131042,-9.650574 7.857208,-14.369141c-0.04364,2.971924 -0.26062,5.753906 -0.303528,8.72583c6.065521,-4.802002 11.838104,-10.023071 17.75415,-15.020447c-4.191986,7.852661 -7.909149,15.956421 -11.286621,24.266663c9.470886,-8.029297 18.425629,-19.982178 32.080231,-19.925171c1.742188,-2.572327 3.488068,-5.3302 5.252808,-8.074402c-0.456146,3.442993 -0.890991,6.911438 -1.519165,10.331787c4.827484,-3.389587 9.207306,-7.35614 13.587097,-11.330261c-2.083344,5.153625 -4.164307,10.298035 -5.903381,15.497498c6.248199,-6.179016 11.883972,-12.964233 17.190002,-19.968811c0.187073,3.878723 0.37854,7.733276 0.738403,11.633789c0.872284,-1.687317 1.772278,-3.353638 2.690948,-5.035645l-0.47702,3.516479c2.045715,2.188416 4.236359,4.286621 6.510986,6.25116c-0.185608,-2.824707 -0.464203,-5.635071 -0.694183,-8.464905c0.203766,-0.277283 0.411011,-0.546204 0.607819,-0.824951l5.209167,8.94281c1.432587,-1.56189 2.670624,-2.995239 4.080658,-4.384949l-3.820038,-6.815247c4.637482,2.015442 8.82196,4.847656 11.980804,8.769104c2.570099,-0.886414 5.134705,-1.937317 7.727386,-2.995972c2.101135,1.329712 4.063416,2.622009 6.163818,3.950806c0.451538,-8.697815 -0.335083,-17.354309 -1.823273,-25.959106c2.483734,5.058228 3.793823,10.815613 7.423828,15.150269c2.857697,0.903687 5.924286,0.431213 8.941925,0.129883c-2.345978,-6.091003 -4.360199,-12.121887 -6.511749,-18.362549c3.574463,6.078369 7.151825,12.133423 12.285065,17.017029c0.995544,-3.54657 2.148651,-7.045044 2.821747,-10.809326c7.207428,1.129761 15.252472,2.701416 18.666809,9.984741c1.7211,0.227417 3.2258,0.619568 4.774841,0.824585c-1.885437,-4.278198 -3.931183,-8.397156 -5.816803,-12.675537c3.445343,3.083069 6.863373,6.160889 10.332001,9.072693c1.334106,-8.75647 -2.172668,-16.753296 -7.032471,-23.702271c4.201721,2.658508 8.296692,4.952759 12.762146,6.945862c-1.077332,-11.702759 -10.729248,-19.624023 -17.059967,-28.694489c3.776398,1.901398 7.532623,3.960541 11.286591,6.034149c-6.996277,-9.334229 -15.967712,-16.842255 -22.96402,-26.176453c-2.07785,-3.687805 -15.332062,-25.776642 -20.489349,-25.134338c-10.99588,3.645782 -22.598877,7.614746 -30.951874,15.801025c-9.974304,-0.091705 -19.736603,1.815735 -28.910889,5.643311c-20.302979,7.821075 -43.007874,11.453308 -63.509125,2.257385c-5.358643,-12.445007 -16.959442,-20.291046 -27.912415,-27.521759c0.961609,-1.974213 1.772095,-3.929718 2.734436,-5.903931l0,0z"/>
  </g>
 </g>
</svg>