<svg xmlns="http://www.w3.org/2000/svg" xmlns:xlink="http://www.w3.org/1999/xlink" version="1.1" id="Layer_1" x="0px" y="0px" width="100px" height="100px" viewBox="0 0 100 100" enable-background="new 0 0 100 100" xml:space="preserve">
<g>
	<path d="M98.44,87.97c-0.029-3.399-0.404-6.713-1.095-9.912c-0.447-2.102-1.052-4.161-1.757-6.148   c-2.809-7.765-7.548-14.606-13.626-19.966c-1.759-1.54-3.617-2.966-5.574-4.249c-2.766-1.801-5.734-3.327-8.859-4.536   c-1.974-0.778-4.019-1.412-6.107-1.93c-3.659-0.88-7.488-1.354-11.422-1.354c-3.933,0-7.765,0.475-11.423,1.354   c-0.374,1.987-0.562,4.032-0.562,6.121c0,0.994,0.043,1.987,0.13,2.968c3.745-1.167,7.735-1.801,11.854-1.801   c4.12,0,8.108,0.634,11.855,1.801c1.914,0.604,3.771,1.338,5.545,2.218c2.837,1.368,5.487,3.081,7.892,5.071   c1.729,1.425,3.328,2.996,4.77,4.68c3.744,4.292,6.567,9.391,8.18,14.996c0.548,1.899,0.966,3.859,1.211,5.86   c-1.786,0.866-3.629,1.614-5.545,2.218c-3.745,1.154-7.722,1.787-11.841,1.787c-2.289,0-4.551-0.203-6.741-0.59   c-2.637,2.52-5.531,4.781-8.643,6.727c4.841,1.626,10.011,2.506,15.384,2.506c3.933,0,7.75-0.475,11.408-1.354   c2.089-0.505,4.134-1.152,6.107-1.931C92.708,91.295,95.675,89.771,98.44,87.97z"/>
	<path d="M11.758,77.282c1.612-5.605,4.436-10.704,8.181-14.996c-0.95-3.328-1.599-6.784-1.901-10.343   C11.959,57.303,7.22,64.145,4.411,71.909c-0.706,1.987-1.311,4.047-1.757,6.148C1.963,81.257,1.589,84.57,1.56,87.97   c2.766,1.801,5.732,3.325,8.858,4.536c1.974,0.778,4.019,1.426,6.106,1.931c3.659,0.879,7.477,1.354,11.409,1.354   c5.372,0,10.543-0.88,15.383-2.506c2.304-0.764,4.552-1.715,6.684-2.809c3.081-1.585,5.962-3.487,8.629-5.678   c1.699-1.395,3.312-2.908,4.811-4.52c4.392-4.727,7.85-10.328,10.082-16.523c-2.19-2.116-4.652-3.917-7.346-5.372   c-2.046,7.115-6.036,13.409-11.352,18.294c-1.512,1.381-3.125,2.65-4.824,3.773c-2.665,1.785-5.56,3.254-8.629,4.348   c-2.146,0.795-4.393,1.385-6.697,1.76c-2.189,0.387-4.45,0.59-6.74,0.59c-4.12,0-8.096-0.633-11.841-1.787   c-1.916-0.604-3.759-1.352-5.546-2.218C10.792,81.142,11.21,79.182,11.758,77.282z"/>
	<path d="M66.263,36.604c3.384,1.065,6.625,2.447,9.679,4.134c-1.384-10.098-5.877-19.2-12.502-26.33   c-1.499-1.613-3.111-3.126-4.811-4.523C55.962,7.695,53.081,5.794,50,4.21c-3.083,1.584-5.964,3.485-8.629,5.675   c-1.699,1.397-3.312,2.91-4.811,4.523c-6.626,7.13-11.119,16.232-12.502,26.33c-0.288,2.161-0.446,4.363-0.446,6.611v0.345   c0.028,3.399,0.402,6.713,1.094,9.912c0.447,2.103,1.052,4.161,1.772,6.148c2.232,6.195,5.689,11.797,10.082,16.523   c3.068-0.809,5.964-2.018,8.613-3.602c-5.314-4.885-9.305-11.179-11.35-18.294c-0.562-1.887-0.965-3.847-1.225-5.848   c-0.23-1.699-0.346-3.429-0.346-5.186c0-1.412,0.072-2.823,0.217-4.191c0.244-2.248,0.662-4.437,1.267-6.554   c2.017-7.245,6.05-13.642,11.437-18.596c1.513-1.383,3.126-2.649,4.826-3.788c1.699,1.139,3.312,2.405,4.824,3.788   C60.212,22.963,64.245,29.359,66.263,36.604z"/>
</g>
</svg>